<svg height="512" width="512" xmlns="http://www.w3.org/2000/svg"><path d="M466 230h-60c-8.284 0-15 6.716-15 15s6.716 15 15 15h15v75c0 2.757-2.243 5-5 5h-15.284c-1.928-17.358-13.766-31.763-29.716-37.42V155c0-24.813-20.187-45-45-45h-55V90h45c8.284 0 15-6.716 15-15V35c0-19.299-15.701-35-35-35h-80c-19.299 0-35 15.701-35 35v40c0 8.284 6.716 15 15 15h45v20h-55c-24.813 0-45 20.187-45 45v147.58c-15.949 5.657-27.787 20.062-29.716 37.42H96c-2.757 0-5-2.243-5-5v-75h15c8.284 0 15-6.716 15-15s-6.716-15-15-15H46c-8.284 0-15 6.716-15 15s6.716 15 15 15h15v75c0 19.299 15.701 35 35 35h15v5c0 8.284 6.716 15 15 15h85v92h-45c-8.284 0-15 6.716-15 15s6.716 15 15 15h180c8.284 0 15-6.716 15-15s-6.716-15-15-15h-45v-70.787l44.394 44.394C348.322 458.536 352.161 460 356 460s7.678-1.464 10.606-4.394c5.858-5.858 5.858-15.355 0-21.213L322.213 390H386c8.284 0 15-6.716 15-15v-5h15c19.299 0 35-15.701 35-35v-75h15c8.284 0 15-6.716 15-15s-6.716-15-15-15zM211 35c0-2.757 2.243-5 5-5h80c2.757 0 5 2.243 5 5v25h-90zm-40 120c0-8.271 6.729-15 15-15h140c8.271 0 15 6.729 15 15v145H171zm70 327v-92h30v92zm130-122H141v-15c0-8.271 6.729-15 15-15h200c8.271 0 15 6.729 15 15z"/></svg>